<svg width="297" height="92" viewBox="0 0 297 92" fill="none" xmlns="http://www.w3.org/2000/svg">
<path d="M42.9756 0.0136719L0.70871 16.4132V32.1365L42.9756 16.4132L86.257 32.1365V16.4132L42.9756 0.0136719Z" fill="black"/>
<path d="M0.70871 75.2488V59.8637L42.9756 75.2488L86.257 59.8637V75.2488L42.9756 91.9865L0.70871 75.2488Z" fill="black"/>
<circle cx="25.3926" cy="46" r="12.1729" fill="black"/>
<path d="M120.713 33.936C120.555 35.4013 120.195 36.6749 119.631 37.7569C119.09 38.8164 118.414 39.6956 117.602 40.3944C116.791 41.0932 115.878 41.623 114.863 41.9836C113.871 42.3218 112.857 42.4908 111.82 42.4908C110.107 42.4908 108.596 42.2767 107.289 41.8484C106.004 41.4201 104.922 40.7325 104.043 39.7858C103.186 38.8164 102.533 37.5541 102.082 35.9986C101.653 34.4432 101.439 32.5384 101.439 30.2842C101.439 28.1201 101.665 26.2603 102.116 24.7049C102.566 23.1495 103.186 21.8646 103.975 20.8502C104.787 19.8358 105.734 19.0919 106.816 18.6185C107.92 18.1451 109.115 17.9084 110.4 17.9084C111.031 17.9084 111.651 17.9647 112.26 18.0775C112.891 18.1676 113.466 18.3142 113.984 18.517C114.503 18.6974 114.953 18.9115 115.337 19.1595C115.742 19.4075 116.047 19.678 116.25 19.971L116.452 18.2127H120.476V25.5164L116.216 25.8546C116.035 24.4344 115.551 23.3975 114.762 22.7437C113.995 22.09 112.97 21.7631 111.685 21.7631C110.896 21.7631 110.163 21.9097 109.487 22.2027C108.833 22.4958 108.258 22.9804 107.762 23.6567C107.266 24.333 106.883 25.2121 106.613 26.2942C106.342 27.3536 106.207 28.6611 106.207 30.2165C106.207 31.7494 106.342 33.0456 106.613 34.1051C106.883 35.1646 107.266 36.0212 107.762 36.6749C108.258 37.3286 108.844 37.802 109.521 38.0951C110.22 38.3881 110.986 38.5347 111.82 38.5347C112.248 38.5347 112.71 38.4445 113.206 38.2642C113.702 38.0613 114.164 37.7682 114.593 37.385C115.044 36.9792 115.427 36.472 115.742 35.8634C116.058 35.2322 116.25 34.4883 116.317 33.6317L120.713 33.936ZM138.331 42.1865V38.7037H140.698V30.5885H131.501V38.7037H133.834V42.1865H124.028V38.7037H126.7V21.5603H124.028V18.2127H133.834V21.5603H131.501V27.2409H140.698V21.5603H138.331V18.2127H148.171V21.5603H145.466V38.7037H148.171V42.1865H138.331ZM170.209 42.1865C168.112 42.1865 166.647 41.375 165.813 39.7519L161.722 31.8058H158.915V38.7037H161.248V42.1865H151.442V38.7037H154.114V21.5603H151.442V18.2127H163.548C168.71 18.2127 171.291 20.4106 171.291 24.8064C171.291 25.5277 171.201 26.2378 171.02 26.9366C170.84 27.6129 170.547 28.2441 170.141 28.8302C169.758 29.3937 169.251 29.9009 168.62 30.3518C167.988 30.7801 167.222 31.0957 166.32 31.2986L169.837 37.6555C170.198 38.3543 170.885 38.7037 171.9 38.7037H172.643V42.1865H170.209ZM163.548 28.2215C165.509 28.2215 166.489 27.0268 166.489 24.6373C166.489 22.5859 165.509 21.5603 163.548 21.5603H158.915V28.2215H163.548ZM176.215 42.1865V38.7037H178.886V21.5603H176.215V18.2127H186.359V21.5603H183.688V38.7037H186.359V42.1865H176.215ZM189.628 42.1865V34.8828L193.652 34.5447C193.832 35.8296 194.351 36.8102 195.207 37.4864C196.064 38.1402 197.168 38.467 198.521 38.467C199.761 38.467 200.775 38.2303 201.564 37.7569C202.353 37.261 202.748 36.4382 202.748 35.2886C202.748 34.7701 202.646 34.3305 202.443 33.9698C202.24 33.5866 201.97 33.271 201.632 33.0231C201.294 32.7525 200.899 32.5271 200.448 32.3468C200.02 32.1664 199.58 32.0086 199.13 31.8734C198.341 31.6254 197.428 31.3775 196.391 31.1295C195.376 30.8815 194.407 30.5096 193.483 30.0136C192.581 29.5177 191.815 28.8527 191.183 28.0186C190.575 27.1846 190.27 26.0575 190.27 24.6373C190.27 23.668 190.417 22.7775 190.71 21.966C191.003 21.132 191.454 20.4219 192.062 19.8358C192.671 19.2271 193.426 18.7537 194.328 18.4156C195.23 18.0775 196.289 17.9084 197.506 17.9084C198.183 17.9084 198.814 17.976 199.4 18.1113C200.009 18.224 200.55 18.3818 201.023 18.5847C201.519 18.7875 201.936 19.013 202.274 19.2609C202.635 19.5089 202.905 19.7456 203.086 19.971L203.289 18.2127H207.279V25.5164L203.052 25.8546C202.984 25.0205 202.793 24.3442 202.477 23.8258C202.184 23.3073 201.823 22.9128 201.395 22.6423C200.967 22.3492 200.482 22.1576 199.941 22.0675C199.4 21.9773 198.859 21.9322 198.318 21.9322C197.236 21.9322 196.391 22.1914 195.782 22.7099C195.173 23.2059 194.869 23.8483 194.869 24.6373C194.869 25.0881 194.97 25.4714 195.173 25.787C195.376 26.1025 195.635 26.3731 195.951 26.5985C196.289 26.8014 196.672 26.9817 197.101 27.1395C197.529 27.2973 197.969 27.4213 198.419 27.5114C199.141 27.6918 199.952 27.9285 200.854 28.2215C201.778 28.5146 202.669 28.8302 203.525 29.1683C203.976 29.3486 204.427 29.5966 204.878 29.9122C205.351 30.2278 205.78 30.6336 206.163 31.1295C206.546 31.6029 206.862 32.1777 207.11 32.854C207.357 33.5077 207.481 34.2742 207.481 35.1533C207.481 36.1452 207.312 37.0919 206.974 37.9936C206.636 38.8728 206.129 39.6505 205.453 40.3268C204.776 40.9805 203.942 41.5103 202.95 41.916C201.981 42.2992 200.854 42.4908 199.569 42.4908C198.284 42.4908 197.191 42.333 196.289 42.0175C195.387 41.7019 194.576 41.2172 193.855 40.5635L193.652 42.1865H189.628ZM101.27 76.1865V72.7037H103.941V55.5603H101.27V52.2127H120.341V59.8546H115.979V55.5603H108.743V62.864H117.974L117.839 66.8202H108.743V72.7037H112.091V76.1865H101.27ZM134.225 76.1865V72.7037H136.457L135.713 69.3562H128.105L127.428 72.7037H129.66V76.1865H120.429V72.7037H122.627L127.665 52.2127H136.288L141.36 72.7037H143.524V76.1865H134.225ZM132.839 56.0675H130.945L128.815 66.0425H135.003L132.839 56.0675ZM164.941 67.936C164.784 69.4013 164.423 70.6749 163.859 71.7569C163.318 72.8164 162.642 73.6956 161.831 74.3944C161.019 75.0932 160.106 75.623 159.092 75.9836C158.1 76.3218 157.085 76.4908 156.048 76.4908C154.335 76.4908 152.825 76.2767 151.517 75.8484C150.232 75.4201 149.15 74.7325 148.271 73.7858C147.415 72.8164 146.761 71.5541 146.31 69.9986C145.882 68.4432 145.668 66.5384 145.668 64.2842C145.668 62.1201 145.893 60.2603 146.344 58.7049C146.795 57.1495 147.415 55.8646 148.204 54.8502C149.015 53.8358 149.962 53.0919 151.044 52.6185C152.149 52.1451 153.343 51.9084 154.628 51.9084C155.259 51.9084 155.879 51.9647 156.488 52.0775C157.119 52.1676 157.694 52.3142 158.212 52.517C158.731 52.6974 159.182 52.9115 159.565 53.1595C159.971 53.4075 160.275 53.678 160.478 53.971L160.681 52.2127H164.705V59.5164L160.444 59.8546C160.264 58.4344 159.779 57.3975 158.99 56.7437C158.224 56.09 157.198 55.7631 155.913 55.7631C155.124 55.7631 154.392 55.9097 153.715 56.2027C153.062 56.4958 152.487 56.9804 151.991 57.6567C151.495 58.333 151.112 59.2121 150.841 60.2942C150.571 61.3536 150.435 62.6611 150.435 64.2165C150.435 65.7494 150.571 67.0456 150.841 68.1051C151.112 69.1646 151.495 70.0212 151.991 70.6749C152.487 71.3286 153.073 71.802 153.749 72.0951C154.448 72.3881 155.214 72.5347 156.048 72.5347C156.477 72.5347 156.939 72.4445 157.435 72.2642C157.931 72.0613 158.393 71.7682 158.821 71.385C159.272 70.9792 159.655 70.472 159.971 69.8634C160.286 69.2322 160.478 68.4883 160.546 67.6317L164.941 67.936ZM168.257 76.1865V72.7037H170.928V55.5603H168.257V52.2127H178.401V55.5603H175.729V72.7037H178.401V76.1865H168.257ZM181.67 76.1865V72.7037H184.341V55.5603H181.67V52.2127H192.152V55.5603H189.143V72.7037H194.857V68.5447H199.219V76.1865H181.67ZM202.513 76.1865V72.7037H205.184V55.5603H202.513V52.2127H221.11V59.5164H216.782V55.5603H209.986V62.2215H219.081L218.946 65.8396H209.986V72.7037H216.782V68.8828H221.11V76.1865H202.513ZM224.412 76.1865V72.7037H227.084V55.5603H224.412V52.2127H235.672C237.498 52.2127 239.065 52.4043 240.372 52.7875C241.702 53.1482 242.784 53.7907 243.618 54.7149C244.475 55.6392 245.095 56.879 245.478 58.4344C245.884 59.9673 246.087 61.9172 246.087 64.2842C246.087 66.606 245.884 68.5334 245.478 70.0663C245.095 71.5766 244.475 72.7939 243.618 73.7181C242.784 74.6198 241.702 75.2623 240.372 75.6455C239.065 76.0062 237.498 76.1865 235.672 76.1865H224.412ZM235.672 72.7037C236.687 72.7037 237.543 72.5685 238.242 72.298C238.963 72.0049 239.549 71.5315 240 70.8778C240.451 70.2015 240.778 69.3336 240.981 68.2742C241.184 67.1921 241.285 65.8621 241.285 64.2842C241.285 62.6836 241.184 61.3311 240.981 60.2265C240.778 59.0994 240.451 58.1977 240 57.5214C239.549 56.8226 238.963 56.3267 238.242 56.0336C237.543 55.7181 236.687 55.5603 235.672 55.5603H231.885V72.7037H235.672ZM249.581 76.1865V72.7037H252.252V55.5603H249.581V52.2127H268.178V59.5164H263.85V55.5603H257.054V62.2215H266.15L266.014 65.8396H257.054V72.7037H263.85V68.8828H268.178V76.1865H249.581ZM280.847 76.1865L273.611 55.5603H271.48V52.2127H280.779V55.5603H278.683L283.214 69.931L287.61 55.5603H285.344V52.2127H294.643V55.5603H292.445L285.209 76.1865H280.847Z" fill="black"/>
<rect x="219.82" y="29.0933" width="18.2593" height="3.38135" fill="black"/>
</svg>
